<?xml version="1.0" encoding="utf-8"?>
<!-- Generator: Adobe Illustrator 27.5.0, SVG Export Plug-In . SVG Version: 6.00 Build 0)  -->
<svg version="1.1" xmlns="http://www.w3.org/2000/svg" xmlns:xlink="http://www.w3.org/1999/xlink" x="0px" y="0px"
	 viewBox="0 0 1122 1122" style="enable-background:new 0 0 1122 1122;" xml:space="preserve">
<g id="BG">
	<rect y="0" style="fill:#FFFFFF;" width="1122" height="1122"/>
</g>
<g id="OBJECT">
	<g>
		<polygon style="opacity:0.47;fill:#272525;" points="834.519,650.002 403.641,593.439 210.969,717.072 516.927,887.989 
			593.55,846.544 647.793,874.596 863.467,753.942 790.344,712.063 876.4,673.986 		"/>
		<g>
			<g style="enable-background:new    ;">
				<g>
					<polygon style="fill:#48494A;" points="483.803,874.596 854.489,659.176 854.699,559.527 484.015,774.944 					"/>
				</g>
				<g>
					<polygon style="fill:#575759;" points="211.283,580.476 451.884,719.387 822.568,503.969 581.968,365.059 					"/>
				</g>
				<g>
					<path style="fill:#222323;" d="M451.884,719.387L211.283,580.476l-0.314,136.596l272.834,157.524l0.211-99.652
						C484.072,754.492,469.682,729.664,451.884,719.387z"/>
				</g>
				<g style="enable-background:new    ;">
					<path style="fill:#4D4D4F;" d="M451.884,719.387c0.105,0.062,0.213,0.123,0.319,0.185l370.685-215.417
						c-0.106-0.062-0.214-0.125-0.319-0.185L451.884,719.387z"/>
					<path style="fill:#6D6E70;" d="M854.4,555.821l0.151-0.085c-0.106-1.321-0.266-2.653-0.475-3.992l-0.007-0.031
						c-0.006-0.037-0.016-0.075-0.016-0.075c-0.229-1.397-0.492-2.771-0.818-4.148c-0.244-1.034-0.561-2.067-0.859-3.103
						c-0.106-0.364-0.189-0.721-0.304-1.085c-0.065-0.214-0.108-0.425-0.176-0.633c-0.638-2.01-1.379-4.009-2.211-5.989
						c-0.05-0.125-0.14-0.241-0.196-0.367c-1.59-3.731-3.557-7.323-5.735-10.79c-0.483-0.762-0.957-1.487-1.465-2.231
						c-2.301-3.399-4.783-6.635-7.531-9.511c-0.07-0.072-0.123-0.168-0.194-0.241c-1.441-1.5-2.939-2.909-4.476-4.217
						c-0.221-0.192-0.46-0.352-0.686-0.538c-0.307-0.254-0.618-0.483-0.932-0.729c-0.696-0.553-1.389-1.133-2.1-1.638
						c-1.143-0.816-2.306-1.572-3.482-2.264l-0.027,0.016c-0.101-0.058-0.194-0.146-0.292-0.203l-370.685,215.42
						c2.022,1.168,3.984,2.575,5.901,4.09c0.309,0.244,0.629,0.472,0.934,0.726c1.849,1.527,3.638,3.2,5.354,4.997
						c2.744,2.874,5.233,6.12,7.534,9.511c0.5,0.739,0.987,1.48,1.462,2.231c2.173,3.465,4.148,7.069,5.738,10.79
						c0.985,2.309,1.858,4.642,2.58,6.989c0.115,0.359,0.199,0.724,0.303,1.085c0.696,2.414,1.287,4.828,1.673,7.217
						c0.006,0.038,0.016,0.071,0.02,0.108c0.42,2.648,0.64,5.266,0.631,7.814l370.685-215.418c0.002-1.251-0.047-2.513-0.148-3.791
						L854.4,555.821z"/>
					<path style="fill:#6D6E70;" d="M854.4,555.821l0.151-0.085c-0.106-1.321-0.266-2.653-0.475-3.992l-0.007-0.031
						c-0.006-0.037-0.016-0.075-0.016-0.075c-0.229-1.397-0.492-2.771-0.818-4.148c-0.244-1.034-0.561-2.067-0.859-3.103
						c-0.106-0.364-0.189-0.721-0.304-1.085c-0.065-0.214-0.108-0.425-0.176-0.633c-0.638-2.01-1.379-4.009-2.211-5.989
						c-0.05-0.125-0.14-0.241-0.196-0.367c-1.59-3.731-3.557-7.323-5.735-10.79c-0.483-0.762-0.957-1.487-1.465-2.231
						c-2.301-3.399-4.783-6.635-7.531-9.511c-0.07-0.072-0.123-0.168-0.194-0.241c-1.441-1.5-2.939-2.909-4.476-4.217
						c-0.221-0.192-0.46-0.352-0.686-0.538c-0.307-0.254-0.618-0.483-0.932-0.729c-0.701-0.553-1.389-1.133-2.1-1.638
						c-1.143-0.816-2.306-1.572-3.482-2.264l-0.027,0.016c-0.101-0.058-0.194-0.146-0.292-0.203l-370.685,215.42
						c2.022,1.168,3.984,2.575,5.901,4.09c0.309,0.244,0.629,0.472,0.934,0.726c1.849,1.527,3.638,3.2,5.354,4.997
						c2.744,2.874,5.233,6.12,7.534,9.511c0.5,0.739,0.987,1.48,1.462,2.231c2.173,3.465,4.148,7.069,5.738,10.79
						c0.985,2.309,1.858,4.642,2.58,6.989c0.115,0.359,0.199,0.724,0.303,1.085c0.696,2.414,1.287,4.828,1.673,7.217
						c0.006,0.038,0.016,0.071,0.02,0.108c0.42,2.648,0.64,5.266,0.631,7.814l370.685-215.418c0.002-1.251-0.047-2.513-0.148-3.791
						L854.4,555.821z"/>
				</g>
			</g>
			<g>
				<polygon style="fill:#222323;" points="541.087,804.153 797.275,655.277 797.421,604.208 541.233,753.085 				"/>
			</g>
		</g>
		<g>
			<g style="enable-background:new    ;">
				<g>
					<polygon style="fill:#222323;" points="541.481,782.657 669.659,858.415 669.685,849.117 541.506,773.364 					"/>
				</g>
				<g>
					<polygon style="fill:#48494A;" points="669.659,858.415 911.006,718.158 911.031,708.86 669.685,849.117 					"/>
				</g>
			</g>
		</g>
		<g>
			<polygon style="fill:#222323;" points="275.192,584.648 338.293,620.845 653.292,437.789 590.185,401.591 			"/>
		</g>
		<g>
			<polygon style="fill:#4D4D4F;" points="372.947,642.229 436.054,678.427 751.051,495.369 687.946,459.174 			"/>
		</g>
		<g>
			<g style="enable-background:new    ;">
				<g>
					<polygon style="fill:#222323;" points="246.909,400.375 301.122,588.784 310.081,590 255.868,401.591 					"/>
				</g>
				<g>
					<polygon style="fill:#38393A;" points="246.909,400.375 255.868,401.591 542.144,235.227 533.188,234.011 					"/>
				</g>
			</g>
		</g>
		<g>
			<polygon style="fill:#575759;" points="541.233,753.085 541.087,773.115 541.233,773.203 782.578,632.946 765.418,622.802 			"/>
			<polygon style="fill:#7A7A7D;" points="541.233,773.203 669.685,849.117 911.031,708.86 782.578,632.946 			"/>
		</g>
		<g>
			<polygon style="fill:#8E8E91;" points="372.947,642.229 436.054,678.427 553.615,610.155 490.511,573.957 			"/>
		</g>
		<g>
			<polygon style="fill:#8E8E91;" points="493.822,571.901 556.926,608.098 573.934,598.24 510.83,562.041 			"/>
		</g>
		<g>
			<polygon style="fill:#7A7A7D;" points="255.868,401.591 307.913,582.461 594.19,416.097 542.144,235.227 			"/>
			<polygon style="fill:#434345;" points="307.913,582.461 315.289,608.098 338.293,620.845 608.002,464.11 594.19,416.097 			"/>
		</g>
		<g>
			<g style="enable-background:new    ;">
				<g>
					<polygon style="fill:#222323;" points="294.142,423.407 348.523,614.901 354.914,612.273 301.562,424.415 					"/>
				</g>
				<g>
					<polygon style="fill:#38393A;" points="294.142,423.407 301.562,424.415 538.688,286.614 531.267,285.604 					"/>
				</g>
			</g>
		</g>
		<g>
			<polygon style="fill:#7A7A7D;" points="301.562,424.415 346.455,580.483 584.408,442.201 538.688,286.614 			"/>
			<polygon style="fill:#434345;" points="346.455,580.483 355.236,611.002 593.55,473.319 584.408,442.201 			"/>
		</g>
		<polygon style="fill:#434345;" points="323.507,577.537 335.822,570.379 294.142,423.407 		"/>
	</g>
</g>
</svg>
